<svg width="16" height="16" viewBox="0 0 16 16" fill="none" xmlns="http://www.w3.org/2000/svg">
<path d="M7.06261 15.2937L0.28252 8.5136C0.179791 8.41087 0.106854 8.29958 0.0637076 8.17973C0.0205616 8.05988 -0.000668806 7.93147 1.60515e-05 7.79449C1.60515e-05 7.65752 0.0215893 7.52911 0.0647353 7.40926C0.107881 7.28941 0.180476 7.17812 0.28252 7.07539L7.06261 0.295306C7.25094 0.106971 7.48653 0.00869395 7.76938 0.000475658C8.05223 -0.00774263 8.29603 0.0905341 8.50081 0.295306C8.70626 0.483642 8.81345 0.719233 8.82235 1.00208C8.83125 1.28493 8.73263 1.52873 8.52649 1.73351L3.49279 6.76721H14.9727C15.2638 6.76721 15.5079 6.86583 15.7052 7.06307C15.9024 7.26031 16.0007 7.50412 16 7.79449C16 8.08556 15.9017 8.32971 15.7052 8.52695C15.5086 8.72419 15.2645 8.82247 14.9727 8.82178H3.49279L8.52649 13.8555C8.71483 14.0438 8.81345 14.2835 8.82235 14.5746C8.83125 14.8656 8.73263 15.1053 8.52649 15.2937C8.33815 15.4991 8.09845 15.6019 7.80739 15.6019C7.51633 15.6019 7.26806 15.4991 7.06261 15.2937Z" fill="#444444"/>
</svg>
