<svg width="16" height="16" viewBox="0 0 16 16" fill="none" xmlns="http://www.w3.org/2000/svg">
<path d="M1.33203 14.667H14.6654M1.33203 14.667V11.3337L7.9987 4.66699L10.3895 2.27616L10.3904 2.27533C10.7195 1.94616 10.8845 1.78116 11.0745 1.71949C11.2419 1.66512 11.4222 1.66512 11.5895 1.71949C11.7795 1.78116 11.9437 1.94616 12.2729 2.27449L13.7229 3.72449C14.0529 4.05449 14.2179 4.21949 14.2795 4.40949C14.3339 4.57685 14.3339 4.75713 14.2795 4.92449C14.2179 5.11449 14.0529 5.27949 13.7229 5.60949L11.332 8.00116L7.9987 4.66783M1.33203 14.667H4.66536L11.332 8.00033" stroke="#474871" stroke-width="2" stroke-linecap="round" stroke-linejoin="round"/>
</svg>
