<svg width="17" height="18" viewBox="0 0 17 18" fill="none" xmlns="http://www.w3.org/2000/svg">
<path d="M10.6425 4.83339L5.15412 10.3217C4.99494 10.4755 4.86797 10.6594 4.78062 10.8627C4.69327 11.0661 4.64729 11.2848 4.64537 11.5061C4.64345 11.7274 4.68562 11.9468 4.76942 12.1516C4.85322 12.3565 4.97697 12.5426 5.13346 12.699C5.28995 12.8555 5.47604 12.9793 5.68086 13.0631C5.88569 13.1469 6.10516 13.1891 6.32646 13.1871C6.54776 13.1852 6.76646 13.1392 6.9698 13.0519C7.17314 12.9645 7.35704 12.8376 7.51079 12.6784L12.8558 7.19006C13.463 6.56138 13.799 5.71937 13.7914 4.84538C13.7838 3.9714 13.4332 3.13535 12.8152 2.51733C12.1972 1.8993 11.3611 1.54874 10.4871 1.54114C9.61314 1.53355 8.77113 1.86953 8.14245 2.47672L2.79662 7.96422C1.85886 8.90198 1.33203 10.1739 1.33203 11.5001C1.33203 12.8262 1.85886 14.0981 2.79662 15.0359C3.73438 15.9736 5.00626 16.5005 6.33245 16.5005C7.65865 16.5005 8.93053 15.9736 9.86829 15.0359L15.0825 9.83339" stroke="#2B2C50" stroke-width="2" stroke-linecap="round" stroke-linejoin="round"/>
</svg>
