<svg width="12" height="16" viewBox="0 0 12 16" fill="none" xmlns="http://www.w3.org/2000/svg">
<path d="M1.83464 12.9583L6.0013 11.1667L10.168 12.9583V2.16667H1.83464V12.9583ZM1.33464 15C1.05686 15.1111 0.792969 15.0867 0.542969 14.9267C0.292969 14.7667 0.167969 14.5344 0.167969 14.23V2.16667C0.167969 1.70833 0.331302 1.31583 0.657969 0.989168C0.984635 0.662501 1.37686 0.499446 1.83464 0.500001H10.168C10.6263 0.500001 11.0188 0.663335 11.3455 0.990001C11.6721 1.31667 11.8352 1.70889 11.8346 2.16667V14.2292C11.8346 14.5347 11.7096 14.7675 11.4596 14.9275C11.2096 15.0875 10.9457 15.1117 10.668 15L6.0013 13L1.33464 15Z" fill="#474871"/>
</svg>
