<svg width="14" height="20" viewBox="0 0 14 20" fill="none" xmlns="http://www.w3.org/2000/svg">
<path d="M1.9987 19.1663C1.54037 19.1663 1.14787 19.003 0.821199 18.6763C0.494533 18.3497 0.331477 17.9575 0.332033 17.4997V8.33301C0.332033 7.87467 0.495366 7.48217 0.822033 7.15551C1.1487 6.82884 1.54092 6.66579 1.9987 6.66634H4.4987V8.33301H1.9987V17.4997H11.9987V8.33301H9.4987V6.66634H11.9987C12.457 6.66634 12.8495 6.82968 13.1762 7.15634C13.5029 7.48301 13.6659 7.87523 13.6654 8.33301V17.4997C13.6654 17.958 13.502 18.3505 13.1754 18.6772C12.8487 19.0038 12.4565 19.1669 11.9987 19.1663H1.9987ZM6.16537 13.333V4.02051L4.83203 5.35384L3.66537 4.16634L6.9987 0.833008L10.332 4.16634L9.16537 5.35384L7.83203 4.02051V13.333H6.16537Z" fill="#444444"/>
</svg>
