<svg width="20" height="13" viewBox="0 0 20 13" fill="none" xmlns="http://www.w3.org/2000/svg">
<path d="M19.061 1.375V6.375C19.061 6.62364 18.9622 6.8621 18.7864 7.03791C18.6106 7.21373 18.3721 7.3125 18.1235 7.3125C17.8749 7.3125 17.6364 7.21373 17.4606 7.03791C17.2848 6.8621 17.186 6.62364 17.186 6.375V3.64063L11.2868 9.54063C11.1997 9.62803 11.0962 9.69737 10.9822 9.74469C10.8683 9.79201 10.7461 9.81637 10.6227 9.81637C10.4993 9.81637 10.3772 9.79201 10.2632 9.74469C10.1492 9.69737 10.0458 9.62803 9.95866 9.54063L7.4985 7.07813L2.53678 12.0383C2.36066 12.2144 2.12179 12.3133 1.87272 12.3133C1.62365 12.3133 1.38478 12.2144 1.20866 12.0383C1.03254 11.8622 0.933594 11.6233 0.933594 11.3742C0.933594 11.1251 1.03254 10.8863 1.20866 10.7102L6.83366 5.08516C6.92075 4.99776 7.02425 4.92841 7.1382 4.88109C7.25216 4.83377 7.37433 4.80942 7.49772 4.80942C7.62111 4.80942 7.74328 4.83377 7.85724 4.88109C7.97119 4.92841 8.07468 4.99776 8.16178 5.08516L10.6235 7.54688L15.8579 2.3125H13.1235C12.8749 2.3125 12.6364 2.21373 12.4606 2.03791C12.2848 1.8621 12.186 1.62364 12.186 1.375C12.186 1.12636 12.2848 0.887903 12.4606 0.712087C12.6364 0.536272 12.8749 0.4375 13.1235 0.4375H18.1235C18.3721 0.4375 18.6106 0.536272 18.7864 0.712087C18.9622 0.887903 19.061 1.12636 19.061 1.375Z" fill="#474871"/>
</svg>
