<?xml version="1.0" encoding="UTF-8"?><svg id="Layer_1" xmlns="http://www.w3.org/2000/svg" viewBox="0 0 128 128"><defs><style>.cls-1{fill:#2d2b96;}</style></defs><path class="cls-1" d="m86.83,121.45H25.93c-9.86,0-16.68-1.76-20.46-5.3C1.68,112.61-.2,106.65-.2,98.27V29.73C-.2,21.35,1.68,15.39,5.47,11.86c3.78-3.53,10.6-5.3,20.46-5.3h60.9v27.86h-48.82c-1.97,0-3.29.41-3.95,1.23-.66.82-.99,1.97-.99,3.45v49.8c0,1.48.33,2.63.99,3.45.66.82,1.97,1.23,3.95,1.23h48.82v27.86Z"/><path class="cls-1" d="m95.16,87.67h33.04v33.78h-33.04v-33.78Z"/></svg>